<?xml version="1.0" encoding="UTF-8"?>
<svg id="Ebene_1" xmlns="http://www.w3.org/2000/svg" version="1.1" viewBox="0 0 1500 1500">
  <!-- Generator: Adobe Illustrator 29.1.0, SVG Export Plug-In . SVG Version: 2.1.0 Build 142)  -->
  <defs>
    <style>
      .st0 {
        fill: #f7e9df;
      }

      .st1 {
        fill: #f8b8b1;
      }
    </style>
  </defs>
  <g>
    <path class="st1" d="M1500,699.6l-124.6-54.2,89.5-102.3s-195.8-303.8-512.1-10.7c216.7-372.8-122.6-497.3-122.6-497.3l-80.2,109.7-80.2-109.7s-339.4,124.5-122.6,497.3c-316.2-293.1-512.1,10.7-512.1,10.7l89.5,102.3L0,699.6s37.4,284.4,336.3,254.8c-234.5,187.6-62.5,417.2-62.5,417.2l127-48.3,7.4,135.7s250.2,57.2,341.8-182.3c91.6,239.6,341.8,182.3,341.8,182.3l7.4-135.7,127,48.3s171.9-229.6-62.5-417.2c298.8,29.6,336.3-254.8,336.3-254.8ZM750,785.8h0,0Z"/>
    <path class="st0" d="M895.6,740.2l-24.2-10.5,17.4-19.9s-38-59-99.4-2.1c42.1-72.4-23.8-96.5-23.8-96.5l-15.6,21.3-15.6-21.3s-65.9,24.2-23.8,96.5c-61.4-56.9-99.4,2.1-99.4,2.1l17.4,19.9-24.2,10.5s7.3,55.2,65.3,49.5c-45.5,36.4-12.1,81-12.1,81l24.7-9.4,1.4,26.3s48.6,11.1,66.4-35.4c17.8,46.5,66.4,35.4,66.4,35.4l1.4-26.3,24.7,9.4s33.4-44.6-12.1-81c58,5.7,65.3-49.5,65.3-49.5ZM750,756.9h0Z"/>
    <path class="st0" d="M124.6,645.4c104.6,5.9,212.1,22.7,315.4,40.3,104.4,19,208.1,40.4,309.9,71.2-106.2-6.3-210.9-22.1-315.4-40.3-103.1-19.2-209.6-40.6-309.9-71.2h0Z"/>
    <path class="st0" d="M750,756.9c-12.5-100.2-14.9-205-15.7-306.1.4-102.3,3.2-204.3,15.7-306.1,12.5,101.8,15.3,203.8,15.7,306.1-.8,101.1-3.1,205.7-15.7,306.1h0Z"/>
    <path class="st0" d="M750,756.9c100.2-30.6,206.9-52,309.9-71.2,104.5-18.2,209.3-34.1,315.4-40.3-101.8,30.8-205.6,52.2-309.9,71.2-103.4,17.6-210.7,34.4-315.4,40.3h0Z"/>
    <path class="st0" d="M750,756.9c67.9,86.2,129.7,181.9,188,274.9,57,93.8,114.8,191.9,161.3,291.4-67.9-86.1-129.7-181.9-188-274.9-57-93.9-114.7-192-161.3-291.4h0Z"/>
    <path class="st0" d="M400.7,1323.2c46.7-94.9,104.5-188.2,161.5-277.3,58.7-89.5,119.2-177.6,187.8-260.2-47.6,96.2-103.5,187.3-161.5,277.3-58.3,88.3-120,178.9-187.8,260.2h0Z"/>
  </g>
  <g>
    <path class="st0" d="M547.2,532.4c42.6,28.8,78.6,64.2,113,101.8,33.9,38,65.5,77.4,89.8,122.8-42.7-28.7-78.7-64.2-113-101.8-33.8-38-65.5-77.4-89.8-122.8h0Z"/>
    <path class="st0" d="M336.3,954.3c63.3-43.9,131.1-79.4,200.1-112.9,69.4-32.7,139.6-63,213.6-84.5-63.3,44-131,79.5-200.1,112.9-69.4,32.6-139.6,63-213.6,84.5h0Z"/>
    <path class="st0" d="M750,1276.6c-12.4-86.3-15.2-172.9-15.7-259.8.4-86.9,3.2-173.5,15.7-259.8,12.5,86.3,15.3,172.9,15.7,259.8-.5,86.9-3.3,173.5-15.7,259.8h0Z"/>
    <path class="st0" d="M952.8,532.4c-24.3,45.3-55.9,84.7-89.8,122.8-34.4,37.6-70.4,73-113,101.8,24.2-45.4,55.9-84.8,89.8-122.8,34.4-37.5,70.4-73,113-101.8h0Z"/>
    <path class="st0" d="M1163.7,954.3c-74-21.6-144.2-51.9-213.6-84.5-69.1-33.4-136.8-68.9-200.1-112.9,74,21.5,144.2,51.8,213.6,84.5,69,33.4,136.8,68.9,200.1,112.9h0Z"/>
  </g>
</svg>